# xmcd
#
# Track frame offsets:
#	150
#	18247
#	36377
#	56404
#	76575
#	96510
#	117414
#	134796
#	153567
#	173879
#	187185
#	204781
#
# Disc length: 2886 seconds
#
# Revision: 0
# Processed by: cddbd v1.5.2PL0 Copyright (c) Steve Scherf et al.
# Submitted via: EasyCDDAExtractor 15.3.0.1
#
DISCID=a30b440c
DTITLE=Marconi
DYEAR=2013
DGENRE=Latin
TTITLE0=Desesperadamente Enamorado
TTITLE1=Una Aventura
TTITLE2=Tan Enamorados
TTITLE3=Otro Dia Mas Sin Verte
TTITLE4=Entregate
TTITLE5=Usted Se Me Llevo La Vida
TTITLE6=Te Llevare Conmigo
TTITLE7=No Hace Falta
TTITLE8=Tabaco Y Chanel
TTITLE9=Vaya Manera De Extrañarte
TTITLE10=Me Puedes Pedir Lo Que Sea (A Dueto Con Eiza Gonzalez)
TTITLE11=Ave Maria
EXTD=
EXTT0=
EXTT1=
EXTT2=
EXTT3=
EXTT4=
EXTT5=
EXTT6=
EXTT7=
EXTT8=
EXTT9=
EXTT10=
EXTT11=
PLAYORDER=
